<svg width="100" height="100" viewBox="0 0 100 100" fill="none" xmlns="http://www.w3.org/2000/svg">
  <style>
    :root {
      --primary: #6366f1;
      --accent-cyan: #22d3ee;
    }
    @media (prefers-color-scheme: dark) {
      :root {
        --primary: #818cf8;
        --accent-cyan: #67e8f9;
      }
    }
  </style>
  <path d="M20 30H50C58.3 30 65 36.7 65 45V60C65 68.3 58.3 75 50 75H35L20 85V75C11.7 75 5 68.3 5 60V45C5 36.7 11.7 30 20 30Z" fill="var(--primary)" />
  <path d="M50 20H80C88.3 20 95 26.7 95 35V50C95 58.3 88.3 65 80 65H75V75L60 65H50C41.7 65 35 58.3 35 50V35C35 26.7 41.7 20 50 20Z" fill="var(--accent-cyan)" fill-opacity="0.92" />
  <path d="M54 38L42 52H52L46 65L58 51H48L54 38Z" fill="white" />
</svg>
